<svg width="140" height="18" viewBox="0 0 140 18" fill="none" xmlns="http://www.w3.org/2000/svg">
<g opacity="0.4">
<path d="M72.0748 2.39056C72.1931 2.61777 72.2554 2.86837 72.2567 3.12271V15.5693C72.2489 16.0097 72.0644 16.4299 71.742 16.7414C71.4196 17.0528 70.9845 17.2311 70.5287 17.2386H65.3899V18.0001H71.3169C71.7728 17.9925 72.2078 17.8143 72.5302 17.5028C72.8526 17.1914 73.0372 16.7711 73.045 16.3308V3.88415C73.0437 3.57254 72.9521 3.26749 72.7807 3.00353C72.6092 2.73957 72.3647 2.52723 72.0748 2.39056Z" fill="white"/>
<path d="M80.052 2.21484V17.224H78.0397V17.9891H80.8402V2.21484H80.052Z" fill="white"/>
<path d="M92.5123 2.21484V17.224H90.2764L90.5 17.9891H93.3043V2.21484H92.5123Z" fill="white"/>
<path d="M87.6577 10.3527V17.2313H85.6455V17.9964H88.446V12.9848L87.6577 10.3527Z" fill="white"/>
<path d="M99.8869 11.451H102.202V10.6712H99.0986C98.8353 10.67 98.5759 10.6098 98.3407 10.4955C98.478 10.78 98.6963 11.021 98.9701 11.1902C99.2439 11.3594 99.5619 11.4498 99.8869 11.451Z" fill="white"/>
<path d="M100.959 12.4503L100.167 12.6261V14.504H100.959V12.4503Z" fill="white"/>
<path d="M104.844 2.39056C104.962 2.61777 105.024 2.86837 105.026 3.12271V6.32588L102.991 6.77982V7.71698L105.814 7.08366V3.88049C105.812 3.5695 105.72 3.26522 105.549 3.00197C105.377 2.73872 105.133 2.52696 104.844 2.39056Z" fill="white"/>
<path d="M34.9176 2.39056C35.0359 2.61777 35.0982 2.86837 35.0995 3.12271V15.5693C35.0917 16.0097 34.9071 16.4299 34.5847 16.7414C34.2623 17.0528 33.8273 17.2311 33.3714 17.2386H29.1801C28.9168 17.2374 28.6574 17.1772 28.4222 17.0629C28.5634 17.3424 28.7826 17.5782 29.0551 17.7438C29.3276 17.9094 29.6426 17.9982 29.9645 18.0001H34.1634C34.6193 17.9925 35.0543 17.8142 35.3767 17.5028C35.6991 17.1914 35.8837 16.7711 35.8915 16.3308V3.88415C35.8894 3.57224 35.7972 3.26709 35.6251 3.00317C35.453 2.73925 35.2079 2.52706 34.9176 2.39056Z" fill="white"/>
<path d="M42.7545 7.96591H43.5428V4.92015H44.7857V4.15505H42.7545V7.96591Z" fill="white"/>
<path d="M47.3968 11.2606C47.6902 11.1292 47.9385 10.9194 48.1125 10.6561C48.2864 10.3927 48.3786 10.0867 48.3783 9.77432V3.88049C48.3786 3.56715 48.2873 3.26009 48.115 2.9946C47.9427 2.7291 47.6964 2.51593 47.4044 2.37958C47.5209 2.60741 47.5831 2.85761 47.5863 3.11173V9.02387C47.5885 9.33619 47.4979 9.64256 47.3252 9.90665C47.1526 10.1707 46.9052 10.3815 46.6123 10.5138L47.7795 17.2313H45.627L45.7597 17.9927H48.5602L47.3968 11.2606Z" fill="white"/>
<path d="M43.827 10.6566H42.7545V17.2313H40.7422V17.9964H43.5428V11.451H43.9596L43.827 10.6566Z" fill="white"/>
<path d="M54.8889 14.4894H55.6809V4.92015H56.9201V4.15505H54.8889V14.4894Z" fill="white"/>
<path d="M17.7354 7.96591H18.5237V4.92015H19.7629V4.15505H17.7354V7.96591Z" fill="white"/>
<path d="M23.3782 8.52234V3.88049C23.3762 3.5695 23.2843 3.26522 23.1129 3.00197C22.9415 2.73872 22.6974 2.52695 22.408 2.39056C22.5264 2.61777 22.5886 2.86837 22.5899 3.12271V7.76456C22.5939 8.00914 22.5411 8.25146 22.4355 8.47379C22.33 8.69612 22.1743 8.89282 21.9798 9.04949C22.1728 9.22262 22.3279 9.43136 22.4359 9.66337C22.544 9.89539 22.6028 10.146 22.6089 10.4003V15.562C22.6019 16.009 22.4124 16.4352 22.0816 16.7478C21.7509 17.0605 21.3057 17.2343 20.8429 17.2313H15.7231V17.9927H21.6501C22.106 17.9852 22.541 17.8069 22.8634 17.4955C23.1858 17.184 23.3704 16.7638 23.3782 16.3234V11.1618C23.3708 10.9066 23.3103 10.6555 23.2003 10.4234C23.0903 10.1913 22.9329 9.98298 22.7377 9.81093C22.9387 9.65713 23.1007 9.46119 23.2117 9.23794C23.3226 9.01469 23.3796 8.76998 23.3782 8.52234Z" fill="white"/>
<path d="M59.7472 3.12271C59.7463 2.86832 59.684 2.61763 59.5653 2.39056C59.8532 2.52893 60.0957 2.74186 60.2656 3.00559C60.4356 3.26932 60.5264 3.57349 60.5278 3.88415V16.3308C60.52 16.7711 60.3355 17.1914 60.0131 17.5028C59.6907 17.8142 59.2556 17.9925 58.7998 18.0001H54.5971C54.2751 17.9982 53.9601 17.9094 53.6876 17.7438C53.4151 17.5782 53.1959 17.3424 53.0547 17.0629C53.2899 17.1772 53.5493 17.2374 53.8126 17.2386H58.0191C58.475 17.2311 58.91 17.0528 59.2324 16.7414C59.5548 16.4299 59.7394 16.0097 59.7472 15.5693V3.12271Z" fill="white"/>
<path d="M68.1904 14.504H67.3984V4.15505H69.4297V4.92015H68.1904V14.504Z" fill="white"/>
<path d="M105.026 9.63888C105.024 9.38454 104.962 9.13394 104.844 8.90673C105.131 9.04448 105.374 9.25676 105.544 9.51987C105.714 9.78297 105.805 10.0865 105.806 10.3967V16.3308C105.798 16.7711 105.614 17.1914 105.291 17.5028C104.969 17.8143 104.534 17.9925 104.078 18.0001H99.8793C99.5573 17.9982 99.2424 17.9094 98.9698 17.7438C98.6973 17.5782 98.4781 17.3424 98.3369 17.0629C98.5721 17.1772 98.8315 17.2374 99.0948 17.2386H103.298C103.753 17.2311 104.188 17.0528 104.511 16.7414C104.833 16.4299 105.018 16.0097 105.026 15.5693V9.63888Z" fill="white"/>
<path d="M100.167 7.96591V4.14773L102.199 4.15505V4.92015H100.959V7.96591H100.167Z" fill="white"/>
<path d="M112.673 10.6712H112.931L113.457 12.3112V17.9964H110.657V17.2313H112.673V10.6712Z" fill="white"/>
<path d="M117.63 2.21484H118.676L116.061 10.0818L118.676 17.9964H115.853L115.83 17.9049L115.61 17.2313H117.884L115.269 9.32039L117.63 2.21484Z" fill="white"/>
<path d="M125.255 17.224V2.21484H126.043V17.9891H123.246V17.224H125.255Z" fill="white"/>
<path d="M137.044 11.418L139.212 9.32405L140 10.0892L137.836 12.1831L137.044 11.418Z" fill="white"/>
<path d="M3.64939 11.418L5.81326 9.32771L6.60529 10.0892L4.45279 12.1831L3.64939 11.418Z" fill="white"/>
<path d="M18.5237 14.504H17.7354V10.6712H19.7629V11.451H18.5237V14.504Z" fill="white"/>
<path d="M31.0294 14.504H30.2412L30.245 4.15505H32.2686V4.92015H31.0294V14.504Z" fill="white"/>
</g>
<path d="M2.16387 5.79134L0 7.8853L2.16387 9.98658L4.32775 7.8853L2.16387 5.79134Z" fill="white"/>
<path d="M135.559 5.795L133.395 7.8853L135.566 9.98658L137.726 7.8853L135.559 5.795Z" fill="white"/>
<path fill-rule="evenodd" clip-rule="evenodd" d="M20.9259 7.03117C21.0341 6.81075 21.0899 6.56975 21.0893 6.32581V1.66931C21.0853 1.22777 20.902 0.805389 20.5787 0.493158C20.2555 0.180926 19.8183 0.00382742 19.3612 4.02413e-06H13.4342V15.7816H19.365C19.8209 15.774 20.2559 15.5958 20.5783 15.2843C20.9007 14.9729 21.0852 14.5526 21.093 14.1123V8.95058C21.0869 8.69623 21.0281 8.44565 20.9201 8.21364C20.812 7.98162 20.6569 7.77288 20.464 7.59976C20.6599 7.44586 20.8177 7.25159 20.9259 7.03117ZM16.2347 2.70531H18.266V6.51617H16.2347V2.70531ZM16.2347 9.22148H18.266V13.0543H16.2347V9.22148Z" fill="white"/>
<path fill-rule="evenodd" clip-rule="evenodd" d="M33.0883 0.493158C32.7651 0.180926 32.3278 0.00382742 31.8707 4.02413e-06H27.6642C27.4372 -0.000478117 27.2122 0.0423692 27.0024 0.126089C26.7925 0.209808 26.6018 0.332752 26.4412 0.487858C26.2806 0.642962 26.1534 0.827178 26.0667 1.02992C25.98 1.23267 25.9357 1.44996 25.9362 1.66931V14.1159C25.9401 14.5575 26.1235 14.9798 26.4467 15.2921C26.7699 15.6043 27.2072 15.7814 27.6642 15.7852H31.8707C32.3266 15.7777 32.7616 15.5994 33.084 15.288C33.4064 14.9765 33.591 14.5563 33.5988 14.1159V1.66931C33.5948 1.22777 33.4115 0.805389 33.0883 0.493158ZM28.7443 2.70531H30.7717L30.7755 13.0543H28.7443V2.70531Z" fill="white"/>
<path fill-rule="evenodd" clip-rule="evenodd" d="M42.3339 9.22148L43.4708 15.7816H46.2637L45.0965 9.06406C45.3927 8.93481 45.6442 8.72596 45.8209 8.46242C45.9977 8.19888 46.0922 7.89179 46.0932 7.57779V1.66931C46.0947 1.45154 46.0518 1.23561 45.9669 1.03386C45.882 0.832105 45.7568 0.648481 45.5984 0.49347C45.4401 0.33846 45.2516 0.215098 45.0439 0.130428C44.8362 0.0457596 44.6133 0.00144061 44.3878 4.02413e-06H38.4609V15.7816H41.2614V9.22148H42.3339ZM41.2538 2.70531H43.2851V6.51617H41.2538V2.70531Z" fill="white"/>
<path fill-rule="evenodd" clip-rule="evenodd" d="M57.736 0.493158C57.4128 0.180926 56.9755 0.00382742 56.5184 4.02413e-06H52.2968C51.8421 0.00482965 51.4078 0.182946 51.0884 0.495585C50.7691 0.808224 50.5904 1.23008 50.5915 1.66931V14.1159C50.5954 14.5575 50.7787 14.9798 51.102 15.2921C51.4252 15.6043 51.8624 15.7814 52.3195 15.7852H56.5184C56.9743 15.7777 57.4093 15.5994 57.7317 15.288C58.0541 14.9765 58.2387 14.5563 58.2465 14.1159V1.66931C58.2425 1.22777 58.0592 0.805389 57.736 0.493158ZM53.3882 2.70531H55.4194V13.0543H53.3882V2.70531Z" fill="white"/>
<path fill-rule="evenodd" clip-rule="evenodd" d="M70.2455 0.493158C69.9223 0.180926 69.4851 0.00382742 69.028 4.02413e-06H63.101V15.7852H69.028C69.4838 15.7777 69.9189 15.5994 70.2413 15.288C70.5637 14.9765 70.7482 14.5563 70.756 14.1159V1.66931C70.7521 1.22777 70.5687 0.805389 70.2455 0.493158ZM65.9015 2.70531H67.9328V13.0543H65.9015V2.70531Z" fill="white"/>
<path d="M78.5513 4.02413e-06H75.7508V15.7816H78.5513V4.02413e-06Z" fill="white"/>
<path d="M91.0154 15.7816V4.02413e-06H88.2035V6.46858L86.1495 4.02413e-06H83.3717V15.7816H86.1609V8.88834L88.2148 15.7816H91.0154Z" fill="white"/>
<path d="M103.014 7.00932C102.691 6.69709 102.254 6.51999 101.797 6.51617H98.678V2.70531H100.709V5.49482L103.532 4.8615V1.66931C103.529 1.22777 103.345 0.805389 103.022 0.493158C102.699 0.180926 102.261 0.00382742 101.804 4.02413e-06H97.5979C97.3715 0.000483354 97.1474 0.0440419 96.9384 0.128193C96.7293 0.212344 96.5396 0.335438 96.3798 0.490447C96.22 0.645457 96.0934 0.829349 96.0072 1.03162C95.921 1.23389 95.8769 1.45058 95.8774 1.66931V7.55949C95.8779 7.77823 95.923 7.99472 96.0101 8.19663C96.0973 8.39853 96.2247 8.58188 96.3851 8.73621C96.5456 8.89054 96.736 9.01283 96.9454 9.09609C97.1548 9.17935 97.3791 9.22196 97.6055 9.22148H100.709V13.058H98.678V10.2392L95.8774 10.8688V14.1159C95.8814 14.5562 96.0637 14.9775 96.3852 15.2895C96.7068 15.6016 97.1422 15.7795 97.5979 15.7852H101.797C102.253 15.7777 102.688 15.5994 103.01 15.288C103.333 14.9765 103.517 14.5563 103.525 14.1159V8.18548C103.521 7.74393 103.338 7.32156 103.014 7.00932Z" fill="white"/>
<path d="M116.387 15.7852L113.772 7.87065L116.41 4.02413e-06H113.564L111.415 6.51617H111.184V4.02413e-06H108.383V15.7816H111.184V9.22513H111.441L113.541 15.6937L113.564 15.7852H116.387Z" fill="white"/>
<path d="M123.773 4.02413e-06H120.972V15.7816H123.773V4.02413e-06Z" fill="white"/>
</svg>
