<svg width="367" height="152" viewBox="0 0 367 152" fill="none" xmlns="http://www.w3.org/2000/svg">
<g clip-path="url(#clip0_0_582)">
<g opacity="0.4">
<path d="M188.933 57.8693C189.244 58.4859 189.407 59.166 189.41 59.8562V93.634C189.39 94.8291 188.906 95.9695 188.061 96.8147C187.216 97.6599 186.076 98.1438 184.881 98.1642H171.411V100.231H186.947C188.142 100.21 189.282 99.7263 190.127 98.8811C190.972 98.0359 191.456 96.8955 191.476 95.7004V61.9226C191.473 61.077 191.233 60.2491 190.784 59.5328C190.334 58.8164 189.693 58.2402 188.933 57.8693Z" fill="white"/>
<path d="M209.842 57.3924V98.1244H204.568V100.201H211.909V57.3924H209.842Z" fill="white"/>
<path d="M242.502 57.3924V98.1244H236.642L237.228 100.201H244.578V57.3924H242.502Z" fill="white"/>
<path d="M229.778 79.4771V98.1443H224.504V100.221H231.844V86.6201L229.778 79.4771Z" fill="white"/>
<path d="M261.832 82.4575H267.901V80.3414H259.766C259.076 80.338 258.396 80.1748 257.779 79.8646C258.139 80.6368 258.712 81.2906 259.429 81.7498C260.147 82.2089 260.98 82.4544 261.832 82.4575Z" fill="white"/>
<path d="M264.643 85.1697L262.567 85.6465V90.743H264.643V85.1697Z" fill="white"/>
<path d="M274.825 57.8693C275.135 58.4859 275.298 59.166 275.301 59.8562V68.549L269.967 69.7809V72.3242L277.367 70.6055V61.9127C277.362 61.0687 277.121 60.243 276.672 59.5285C276.223 58.8141 275.583 58.2394 274.825 57.8693Z" fill="white"/>
<path d="M91.5398 57.8693C91.85 58.4859 92.0132 59.166 92.0166 59.8562V93.634C91.9962 94.8291 91.5124 95.9695 90.6674 96.8147C89.8223 97.6599 88.6821 98.1437 87.4871 98.1642H76.5012C75.8111 98.1607 75.1311 97.9975 74.5146 97.6873C74.8847 98.4458 75.4593 99.0858 76.1736 99.5352C76.8879 99.9845 77.7135 100.225 78.5573 100.231H89.5632C90.7581 100.21 91.8983 99.7263 92.7434 98.8811C93.5884 98.0359 94.0722 96.8955 94.0926 95.7004V61.9226C94.0872 61.0761 93.8453 60.248 93.3942 59.5318C92.9432 58.8156 92.3008 58.2397 91.5398 57.8693Z" fill="white"/>
<path d="M112.081 72.9997H114.147V64.7341H117.405V62.6578H112.081V72.9997Z" fill="white"/>
<path d="M124.249 81.9409C125.018 81.5844 125.669 81.0151 126.125 80.3003C126.581 79.5856 126.823 78.7552 126.822 77.9074V61.9127C126.823 61.0623 126.583 60.229 126.132 59.5085C125.68 58.788 125.035 58.2095 124.269 57.8395C124.575 58.4578 124.738 59.1368 124.746 59.8264V75.8708C124.752 76.7184 124.514 77.5499 124.062 78.2666C123.609 78.9832 122.961 79.5551 122.193 79.9142L125.253 98.1443H119.611L119.958 100.211H127.299L124.249 81.9409Z" fill="white"/>
<path d="M114.892 80.3017H112.081V98.1443H106.807V100.221H114.147V82.4575H115.24L114.892 80.3017Z" fill="white"/>
<path d="M143.887 90.7033H145.963V64.7341H149.211V62.6578H143.887V90.7033Z" fill="white"/>
<path d="M46.5034 72.9997H48.5695V64.7341H51.8176V62.6578H46.5034V72.9997Z" fill="white"/>
<path d="M61.2937 74.5098V61.9127C61.2885 61.0687 61.0477 60.243 60.5984 59.5285C60.1491 58.8141 59.5092 58.2394 58.7508 57.8693C59.061 58.4859 59.2242 59.166 59.2276 59.8562V72.4533C59.2379 73.1171 59.0997 73.7747 58.823 74.378C58.5462 74.9814 58.1381 75.5152 57.6284 75.9404C58.1342 76.4102 58.5408 76.9767 58.824 77.6063C59.1072 78.236 59.2613 78.916 59.2773 79.6063V93.6141C59.259 94.8271 58.7623 95.9838 57.8953 96.8323C57.0284 97.6807 55.8614 98.1523 54.6485 98.1443H41.2289V100.211H56.7642C57.9591 100.19 59.0994 99.7064 59.9444 98.8612C60.7895 98.0161 61.2733 96.8756 61.2937 95.6805V81.6727C61.2745 80.9802 61.1159 80.2987 60.8275 79.6688C60.5391 79.039 60.1267 78.4737 59.615 78.0068C60.1417 77.5894 60.5665 77.0577 60.8573 76.4518C61.1482 75.8459 61.2974 75.1819 61.2937 74.5098Z" fill="white"/>
<path d="M156.621 59.8562C156.619 59.1658 156.456 58.4855 156.144 57.8693C156.899 58.2448 157.535 58.8226 157.98 59.5384C158.426 60.2541 158.664 61.0795 158.667 61.9226V95.7004C158.647 96.8955 158.163 98.0359 157.318 98.8811C156.473 99.7263 155.333 100.21 154.138 100.231H143.122C142.278 100.225 141.453 99.9845 140.738 99.5352C140.024 99.0858 139.449 98.4458 139.079 97.6873C139.696 97.9975 140.376 98.1607 141.066 98.1642H152.092C153.287 98.1437 154.427 97.6599 155.272 96.8147C156.117 95.9695 156.601 94.8291 156.621 93.634V59.8562Z" fill="white"/>
<path d="M178.752 90.743H176.676V62.6578H182V64.7341H178.752V90.743Z" fill="white"/>
<path d="M275.301 77.5399C275.298 76.8496 275.135 76.1696 274.824 75.5529C275.578 75.9268 276.214 76.5029 276.659 77.2169C277.105 77.9309 277.343 78.7547 277.347 79.5963V95.7004C277.327 96.8955 276.843 98.0359 275.998 98.8811C275.153 99.7263 274.013 100.21 272.818 100.231H261.812C260.968 100.225 260.143 99.9846 259.428 99.5352C258.714 99.0858 258.14 98.4458 257.769 97.6873C258.386 97.9975 259.066 98.1608 259.756 98.1642H270.772C271.967 98.1438 273.107 97.6599 273.952 96.8147C274.797 95.9695 275.281 94.8291 275.301 93.634V77.5399Z" fill="white"/>
<path d="M262.567 72.9997V62.6379L267.891 62.6578V64.7341H264.643V72.9997H262.567Z" fill="white"/>
<path d="M295.346 80.3414H296.022L297.402 84.7922V100.221H290.062V98.1443H295.346V80.3414Z" fill="white"/>
<path d="M308.339 57.3924H311.08L304.226 78.742L311.08 100.221H303.68L303.62 99.9723L303.044 98.1443H309.004L302.15 76.6756L308.339 57.3924Z" fill="white"/>
<path d="M328.324 98.1244V57.3924H330.39V100.201H323.059V98.1244H328.324Z" fill="white"/>
<path d="M359.226 82.3681L364.907 76.6855L366.973 78.7618L361.302 84.4444L359.226 82.3681Z" fill="white"/>
<path d="M9.58221 82.3681L15.254 76.6954L17.33 78.7618L11.688 84.4444L9.58221 82.3681Z" fill="white"/>
<path d="M48.5695 90.743H46.5034V80.3414H51.8176V82.4575H48.5695V90.743Z" fill="white"/>
<path d="M81.3485 90.743H79.2825L79.2924 62.6578H84.5966V64.7341H81.3485V90.743Z" fill="white"/>
</g>
<path fill-rule="evenodd" clip-rule="evenodd" d="M119.72 0C126.753 0 126.166 8.94118 119.074 11.3553C125.868 15.8954 120.981 28.5522 110.452 28.5621C98.0857 28.5621 95.9104 14.9218 103.32 10.2029L104.651 11.9812C101.225 14.1867 100.509 19.2136 102.953 22.5814C103.461 21.9585 103.917 21.2938 104.314 20.5945L113.879 4.14275C115.469 1.36105 117.733 0 119.72 0ZM105.247 24.6081C106.809 25.4557 108.567 25.8772 110.343 25.8301C118.905 25.8301 122.193 13.6303 113.969 11.8918L112.975 11.7924L107.016 22.0946C106.497 22.9802 105.906 23.8209 105.247 24.6081ZM116.998 4.82824L114.147 9.72601C117.743 9.65647 119.75 8.87163 121.111 6.31843C122.879 2.99033 119.581 0.377516 116.998 4.82824Z" fill="white"/>
<path fill-rule="evenodd" clip-rule="evenodd" d="M257.253 19.1441L257.491 18.8758C257.793 18.9581 258.074 19.1022 258.317 19.2989C258.559 19.4955 258.759 19.7405 258.902 20.0183C256.011 23.3862 252.654 26.446 247.519 26.5454H247.31C246.437 26.5798 245.578 26.3164 244.874 25.7983C244.17 25.2802 243.663 24.5383 243.436 23.6941L245.423 22.7007C245.49 22.8856 245.596 23.0535 245.735 23.1926C245.874 23.3317 246.042 23.4384 246.227 23.5054C246.566 23.6305 246.94 23.616 247.268 23.4651C247.596 23.3142 247.85 23.0392 247.975 22.7007L253.309 13.4515C254.233 11.852 251.78 9.87504 247.807 15.2497L237.238 33.6387H233.672L240.108 22.4722C238.924 23.0386 237.636 23.3564 236.324 23.406H235.539C231.705 28.2442 225.457 27.3699 225.457 22.8596C223.272 24.9558 221.007 26.5056 218.951 26.5056C216.1 26.5056 215.037 24.0915 216.537 21.4787L221.126 13.531C222.656 10.8983 220.252 10.0241 214.809 16.8591L209.445 26.2076H205.879L207.091 24.1014C205.493 25.3048 203.63 26.1086 201.658 26.446H201.558C201.23 26.5156 200.893 26.5156 200.565 26.5156C199.692 26.55 198.833 26.2866 198.129 25.7685C197.425 25.2504 196.918 24.5085 196.691 23.6643L198.847 22.5119C198.975 22.8622 199.2 23.1691 199.495 23.3976C199.79 23.626 200.144 23.7666 200.515 23.8034C202.721 23.8034 203.137 20.9101 203.572 17.8886C203.794 16.3511 204.02 14.7805 204.489 13.5409C204.283 13.8145 204.064 14.1098 203.831 14.4224C202.645 16.0168 201.123 18.0632 199.462 19.9984C196.542 23.3961 193.105 26.5255 190.254 26.5255C187.404 26.5255 186.341 24.1213 187.841 21.4986L191.576 15.0113C191.748 14.6984 191.82 14.3403 191.783 13.9851C191.746 13.6298 191.6 13.2946 191.367 13.0243L190.89 12.4481L190.243 13.3187C187.825 16.5693 186.614 18.1979 185.05 20.0282C182.07 23.4259 178.096 26.5553 174.123 26.5553C171.004 26.5553 169.147 24.618 169.335 22.0648C167.907 22.8985 166.299 23.3756 164.647 23.4557C164.386 23.4756 164.124 23.4756 163.862 23.4557C163.18 24.4159 162.29 25.2095 161.258 25.7772C160.226 26.3449 159.079 26.672 157.903 26.7341C155.618 26.7341 153.82 25.3731 153.82 22.959C151.635 25.0452 149.37 26.5851 147.324 26.5851C144.473 26.5851 143.42 24.1809 144.91 21.5582L148.645 15.0709C148.817 14.758 148.89 14.3999 148.852 14.0447C148.815 13.6894 148.67 13.3542 148.436 13.0839L147.96 12.5077L147.312 13.3788C144.894 16.6293 143.684 18.2576 142.119 20.0879C139.199 23.4855 135.831 26.6149 132.911 26.6149C131.113 26.6149 130.02 25.6612 129.852 24.3001C128.153 25.7009 126.385 26.6149 124.955 26.6149C122.104 26.6149 121.041 24.2107 122.541 21.588L127.507 13.0243C129.007 10.4413 131.649 8.94119 133.557 8.94119C134.497 8.92344 135.408 9.26684 136.103 9.90072C136.798 10.5346 137.223 11.4107 137.291 12.3488H139.278L133.567 22.343C132.752 23.7835 133.189 24.3299 133.974 24.3299C135.543 24.3299 138.017 22.0052 140.569 19.0248L140.808 18.7566C143.092 16.0047 145.208 13.0144 146.768 10.8089L146.46 10.4016C145.198 8.7723 145.387 6.7655 147.374 4.96733L149.211 6.95426L149.062 7.06354C148.924 7.18752 148.812 7.33839 148.733 7.50698C148.655 7.67557 148.611 7.85835 148.606 8.04421C148.6 8.23007 148.633 8.41512 148.701 8.58811C148.769 8.7611 148.872 8.91841 149.003 9.05047L150.989 11.4248C152.141 12.8157 152.717 14.0675 151.496 16.2133L147.96 22.4026C147.145 23.8431 147.582 24.3896 148.367 24.3896C149.936 24.3896 152.41 22.0648 154.962 19.0845L155.151 18.8758L165.054 1.76838H168.66L164.17 9.5472C164.845 9.05819 165.652 8.78461 166.485 8.76236H166.892C167.283 8.78641 167.665 8.88721 168.017 9.05901C168.368 9.23081 168.683 9.47023 168.942 9.76361C169.201 10.057 169.4 10.3986 169.527 10.7688C169.654 11.1391 169.707 11.5308 169.683 11.9216C169.584 13.3656 169.126 14.762 168.352 15.9848L165.025 21.7271C166.044 21.6755 167.043 21.4173 167.96 20.9682C168.877 20.519 169.693 19.8883 170.359 19.1143L170.567 18.8758L174.014 12.915C174.633 11.7102 175.569 10.6965 176.72 9.98248C177.872 9.26848 179.195 8.88107 180.55 8.86171C183.44 8.86171 185.278 11.3156 183.371 14.5741L182.864 15.4583C180.212 20.0382 175.931 20.525 173.656 19.5315L173.319 20.1475C171.69 22.9987 172.981 24.3598 175.156 24.3598C177.64 24.3598 180.898 22.035 183.45 19.0547L183.689 18.7864C185.93 16.099 187.99 13.1842 189.538 10.995L189.649 10.8387L189.351 10.4314C188.089 8.8021 188.278 6.79531 190.264 4.99714L192.102 6.98407L191.993 7.07348C191.859 7.20227 191.753 7.35661 191.681 7.5273C191.608 7.69798 191.571 7.88151 191.571 8.06694C191.571 8.25237 191.608 8.4359 191.681 8.60658C191.753 8.77727 191.859 8.93161 191.993 9.0604L193.979 11.4348C195.132 12.8256 195.708 14.0774 194.486 16.2233L190.95 22.4126C190.135 23.8531 190.572 24.3995 191.357 24.3995C192.926 24.3995 195.4 22.0748 197.953 19.0944L198.191 18.8262C200.723 15.8594 203.262 12.3224 204.931 9.99693C205.364 9.3944 205.738 8.8732 206.038 8.46433L208.69 9.89491C207.369 12.6405 206.938 15.6243 206.552 18.2987C206.302 20.0272 206.071 21.6269 205.631 22.949C207.2 21.8576 208.619 20.565 209.852 19.1043L210.051 18.8758L219.855 1.70877H223.391L217.749 11.5341C219.557 9.69622 221.186 8.85178 222.716 8.85178C224.692 8.85178 226.153 10.789 224.623 13.4714L219.527 22.4126C218.713 23.8531 219.15 24.3995 219.934 24.3995C221.504 24.3995 223.977 22.0748 226.53 19.0944L226.719 18.8758L228.169 16.412L229.907 13.4316C231.943 9.89491 234.049 8.81204 236.771 8.81204C240.099 8.81204 242.075 12.309 239.93 16.0147L236.602 21.7569C237.621 21.7019 238.618 21.4422 239.535 20.9933C240.451 20.5444 241.268 19.9155 241.936 19.1441L242.175 18.8758L247.697 9.2889H251.233L250.518 10.5109C254.124 7.2821 259.458 9.15975 256.16 14.7629L252.257 21.4588C252.037 21.8093 251.828 22.2147 251.609 22.641C251.362 23.121 251.102 23.6273 250.796 24.1114C253.328 23.0177 255.547 21.3105 257.253 19.1441ZM180.57 14.6536C182.676 10.9877 179.02 10.4115 177.034 13.9085L174.759 17.8824C176.09 18.3592 178.365 18.4288 180.063 15.5378L180.57 14.6536ZM126.017 24.4492C127.478 24.4492 129.583 22.8497 131.729 19.4818L134.55 14.6039C136.248 11.4149 132.484 10.5605 130.577 13.8588L125.61 22.4622C124.796 23.9028 125.233 24.4492 126.017 24.4492ZM157.41 23.9841C157.667 24.2077 157.999 24.3244 158.34 24.3101L158.33 24.2703C158.886 24.2309 159.423 24.0518 159.892 23.7496C160.361 23.4475 160.746 23.0321 161.012 22.5417C160.398 22.1253 159.881 21.583 159.494 20.9508C159.107 20.3187 158.859 19.6113 158.767 18.8758L157.575 21.1111C157.221 21.6635 157.009 22.2949 156.959 22.949V23.108C156.992 23.447 157.153 23.7605 157.41 23.9841ZM160.882 19.4474C161.143 20.0044 161.535 20.49 162.025 20.8628L165.64 14.6735C166.044 14.0419 166.277 13.3161 166.316 12.5673C166.321 12.5111 166.321 12.4546 166.316 12.3984C166.317 12.221 166.283 12.0451 166.217 11.8806C166.15 11.7162 166.052 11.5665 165.927 11.4401C165.803 11.3138 165.654 11.2131 165.491 11.144C165.328 11.0749 165.152 11.0387 164.975 11.0374C162.968 11.0374 160.525 15.1503 160.525 17.6638C160.498 18.2785 160.621 18.8904 160.882 19.4474ZM234.437 19.0944H234.615L237.178 14.6536C239.324 10.9778 235.927 9.3187 233.443 13.531L229.093 21.0913C226.987 24.7671 231.03 25.3035 232.698 22.4523V22.3828C232.479 22.0237 232.362 21.6114 232.361 21.1906C232.359 20.9166 232.412 20.6451 232.516 20.3915C232.619 20.1378 232.772 19.9071 232.965 19.7125C233.157 19.5178 233.387 19.363 233.639 19.257C233.892 19.1509 234.163 19.0957 234.437 19.0944Z" fill="white"/>
<path d="M5.68847 67.0986L0.0166931 72.7812L5.68847 78.4837L11.3602 72.7812L5.68847 67.0986Z" fill="white"/>
<path d="M355.332 67.1085L349.66 72.7812L355.352 78.4837L361.014 72.7812L355.332 67.1085Z" fill="white"/>
<path d="M166.793 123.041H168.193C173.587 123.319 177.818 124.759 180.5 127.73C183.222 124.749 187.453 123.299 192.877 123.041H194.218C201.584 123.539 206.496 126.967 211.402 130.39C214.508 132.558 217.612 134.723 221.335 136.144C222.828 136.824 224.453 137.164 226.093 137.138C228.556 136.87 230.126 134.376 229.808 131.594C229.47 128.614 226.55 126.021 223.292 127.451C222.863 127.65 222.47 127.918 222.13 128.246C222.097 128.276 222.063 128.313 222.029 128.353C222.008 128.377 221.987 128.403 221.966 128.428C221.748 128.69 221.469 129.025 220.967 128.852C220.404 128.382 220.906 127.708 221.223 127.283L221.275 127.213C221.864 126.167 222.754 125.323 223.83 124.791C224.905 124.259 226.117 124.065 227.305 124.233C232.897 124.63 237.903 129.538 237.049 136.969C235.142 148.026 225.03 151.007 213.041 152H209.137C198.674 151.574 188.638 147.736 180.56 141.072C172.419 147.714 162.35 151.547 151.853 152H148.019C135.941 150.937 125.729 148.026 123.951 136.641C123.276 128.534 128.103 124.551 133.706 124.143C134.904 123.973 136.125 124.166 137.212 124.697C138.3 125.229 139.203 126.074 139.805 127.124C139.828 127.162 139.853 127.203 139.879 127.245C140.163 127.699 140.558 128.332 140.112 128.832C139.614 128.922 139.324 128.615 139.093 128.371C139.043 128.319 138.996 128.269 138.95 128.226C138.587 127.848 138.153 127.545 137.672 127.335C137.191 127.126 136.674 127.013 136.149 127.004C132.315 126.865 130.11 131.127 131.64 134.565C131.938 135.233 132.402 135.813 132.988 136.252C133.574 136.69 134.262 136.971 134.987 137.068C136.625 137.078 138.247 136.74 139.745 136.075C141.08 135.561 142.366 134.929 143.589 134.187C145.484 133.088 147.273 131.87 149.06 130.652C154.157 127.178 159.247 123.71 166.793 123.041Z" fill="white"/>
<path fill-rule="evenodd" clip-rule="evenodd" d="M54.866 70.4632C55.1496 69.8651 55.2959 69.211 55.2941 68.549V55.9121C55.2838 54.7139 54.8032 53.5676 53.956 52.7203C53.1088 51.8729 51.9627 51.3923 50.7647 51.382H35.2294V94.2102H50.7746C51.9695 94.1898 53.1098 93.7059 53.9548 92.8607C54.7999 92.0155 55.2836 90.8751 55.3041 89.68V75.6721C55.2881 74.9819 55.134 74.3019 54.8507 73.6722C54.5675 73.0426 54.161 72.4761 53.6552 72.0063C54.1687 71.5886 54.5825 71.0614 54.866 70.4632ZM42.5699 58.7237H47.894V69.0656H42.5699V58.7237ZM42.5699 76.4073H47.894V86.8089H42.5699V76.4073Z" fill="white"/>
<path fill-rule="evenodd" clip-rule="evenodd" d="M86.745 52.7203C85.8978 51.8729 84.7517 51.3923 83.5536 51.382H72.528C71.9328 51.3806 71.3432 51.4969 70.7931 51.7241C70.2429 51.9513 69.7431 52.285 69.3222 52.7059C68.9014 53.1268 68.5678 53.6268 68.3406 54.177C68.1134 54.7272 67.9972 55.3169 67.9985 55.9121V89.6899C68.0089 90.8882 68.4894 92.0345 69.3366 92.8818C70.1838 93.7291 71.3299 94.2097 72.528 94.2201H83.5536C84.7486 94.1997 85.8888 93.7158 86.7339 92.8707C87.5789 92.0255 88.0627 90.885 88.0831 89.6899V55.9121C88.0728 54.7139 87.5922 53.5676 86.745 52.7203ZM75.3589 58.7237H80.6731L80.683 86.8089H75.3589V58.7237Z" fill="white"/>
<path fill-rule="evenodd" clip-rule="evenodd" d="M110.979 76.4073L113.959 94.2102H121.279L118.22 75.9801C118.996 75.6294 119.656 75.0626 120.119 74.3474C120.582 73.6322 120.83 72.7988 120.832 71.9467V55.9121C120.836 55.3211 120.724 54.7352 120.501 54.1876C120.279 53.6401 119.951 53.1418 119.536 52.7211C119.12 52.3005 118.627 51.9657 118.082 51.7359C117.538 51.5061 116.953 51.3859 116.363 51.382H100.827V94.2102H108.168V76.4073H110.979ZM108.148 58.7237H113.472V69.0656H108.148V58.7237Z" fill="white"/>
<path fill-rule="evenodd" clip-rule="evenodd" d="M151.35 52.7203C150.502 51.8729 149.356 51.3923 148.158 51.382H137.093C135.901 51.3951 134.763 51.8784 133.926 52.7269C133.088 53.5753 132.62 54.7201 132.623 55.9121V89.6899C132.633 90.8882 133.114 92.0345 133.961 92.8818C134.808 93.7291 135.954 94.2097 137.152 94.2201H148.158C149.353 94.1997 150.493 93.7158 151.338 92.8707C152.183 92.0255 152.667 90.885 152.688 89.6899V55.9121C152.677 54.7139 152.197 53.5676 151.35 52.7203ZM139.954 58.7237H145.278V86.8089H139.954V58.7237Z" fill="white"/>
<path fill-rule="evenodd" clip-rule="evenodd" d="M184.139 52.7203C183.291 51.8729 182.145 51.3923 180.947 51.382H165.412V94.2201H180.947C182.142 94.1997 183.282 93.7158 184.127 92.8707C184.972 92.0255 185.456 90.885 185.477 89.6899V55.9121C185.466 54.7139 184.986 53.5676 184.139 52.7203ZM172.752 58.7237H178.077V86.8089H172.752V58.7237Z" fill="white"/>
<path d="M205.909 51.382H198.568V94.2102H205.909V51.382Z" fill="white"/>
<path d="M238.579 94.2102V51.382H231.208V68.9365L225.825 51.382H218.544V94.2102H225.855V75.5033L231.238 94.2102H238.579Z" fill="white"/>
<path d="M270.03 70.4039C269.182 69.5566 268.036 69.076 266.838 69.0656H258.663V58.7237H263.987V66.2939L271.388 64.5752V55.9121C271.377 54.7139 270.897 53.5676 270.049 52.7203C269.202 51.8729 268.056 51.3923 266.858 51.382H255.832C255.239 51.3833 254.651 51.5015 254.104 51.7298C253.556 51.9582 253.058 52.2923 252.64 52.7129C252.221 53.1336 251.889 53.6326 251.663 54.1816C251.437 54.7305 251.322 55.3185 251.323 55.9121V71.897C251.324 72.4906 251.442 73.0781 251.671 73.6261C251.899 74.174 252.233 74.6716 252.654 75.0904C253.074 75.5092 253.573 75.8411 254.122 76.067C254.671 76.293 255.259 76.4086 255.852 76.4073H263.987V86.8188H258.663V79.1691L251.323 80.8779V89.6899C251.333 90.8848 251.811 92.0281 252.654 92.8749C253.497 93.7217 254.638 94.2046 255.832 94.2201H266.838C268.033 94.1997 269.173 93.7158 270.018 92.8707C270.864 92.0255 271.347 90.885 271.368 89.6899V73.5958C271.357 72.3975 270.877 71.2513 270.03 70.4039Z" fill="white"/>
<path d="M305.081 94.2201L298.227 72.7414L305.14 51.382H297.68L292.048 69.0656H291.442V51.382H284.102V94.2102H291.442V76.4172H292.118L297.621 93.9718L297.68 94.2201H305.081Z" fill="white"/>
<path d="M324.44 51.382H317.099V94.2102H324.44V51.382Z" fill="white"/>
</g>
<defs>
<clipPath id="clip0_0_582">
<rect width="367" height="152" fill="white"/>
</clipPath>
</defs>
</svg>
